<svg width="42" height="50" viewBox="0 0 42 50" fill="none" xmlns="http://www.w3.org/2000/svg">
<path fill-rule="evenodd" clip-rule="evenodd" d="M6.01893 5.96796L6.01892 5.96795C5.97902 5.94583 5.93866 5.92345 5.89443 5.89397H5.90277C5.9055 5.88941 5.90883 5.88455 5.91237 5.8794L5.91238 5.87938C5.91962 5.86883 5.92772 5.85703 5.93332 5.84397C5.94443 5.8398 5.95624 5.83633 5.96804 5.83286L5.96806 5.83285C5.97986 5.82938 5.99166 5.82591 6.00277 5.82174C6.06806 5.86838 6.09076 5.91753 6.11461 5.96918C6.12627 5.99444 6.13821 6.02029 6.15554 6.04674C8.61943 7.59397 9.99721 6.76341 10.9611 4.60508C11.0944 4.29397 11.2222 3.95786 11.3472 3.59952C12.4857 0.255749 15.164 0.215048 17.7544 0.175684C18.5835 0.163086 19.4035 0.150626 20.1611 0.0300776C21.9889 -0.256033 21.4055 1.44674 20.6139 2.26619C20.3525 2.54016 20.0454 2.77081 19.7274 3.00969C18.9264 3.61126 18.0559 4.265 17.6722 5.79397C18.4109 5.79397 19.1181 5.79859 19.8036 5.80307C21.3092 5.81291 22.7101 5.82207 24.1111 5.78008C26.7305 5.7023 27.175 6.65508 25.7305 8.77452C25.4142 9.24169 25.1583 9.7523 24.9029 10.2618L24.9029 10.2619C24.5843 10.8975 24.2666 11.5315 23.8333 12.0773C22.3194 13.9717 22.3528 15.2662 24.8361 16.1495C25.4611 16.3717 26.2667 16.9273 26.425 17.4912C27.1788 20.1624 28.9834 22.1696 30.7829 24.171C32.7765 26.3884 34.7637 28.5987 35.3083 31.6967C35.3337 31.8393 35.351 31.9713 35.3668 32.0922C35.4535 32.7535 35.4966 33.0828 36.5722 32.9912C38.4055 32.819 40.575 32.7967 41.0861 35.1356C41.5778 37.3662 39.9861 38.7856 38.2833 39.9634C38.0514 40.1219 37.8746 40.3543 37.6772 40.614L37.6771 40.614L37.6771 40.6141C37.5908 40.7276 37.5005 40.8462 37.4 40.9662C37.5571 41.6515 38.151 41.6697 38.707 41.6867C39.262 41.7037 39.7792 41.7196 39.7861 42.3967C39.7972 43.5245 38.5889 44.0495 37.7528 44.3079C33.4889 45.6329 28.9972 46.0829 24.625 45.994C22.2911 45.9425 20.2482 46.6884 18.2163 47.4303C16.7417 47.9687 15.2728 48.5051 13.7028 48.7329C13.4728 48.7672 13.2471 48.8186 13.0169 48.871C12.1849 49.0604 11.2951 49.2629 9.94165 48.719C11.5466 48.1361 12.6068 46.9544 13.6748 45.7641C15.2687 43.9877 16.8799 42.192 20.3444 42.3384C19.7379 42.0864 19.2508 41.8809 18.8417 41.7082L18.8387 41.707L18.8385 41.7069L18.8384 41.7069L18.8384 41.7069C18.0408 41.3703 17.5397 41.1589 17.0278 40.9717C14.6972 40.1301 14.3861 38.494 16.125 36.5995C17.1055 35.5356 17.7833 34.394 15.5611 33.9329C14.3395 33.6811 14.631 33.1584 14.9542 32.5789C15.1874 32.1608 15.4371 31.7131 15.1472 31.3162C14.775 30.8051 15.9972 30.6606 16.7028 30.7495C18.7917 31.019 21.7444 31.3801 20.9333 28.3273C20.8674 28.0806 20.805 27.8026 20.7384 27.5063L20.7384 27.5061L20.7383 27.5059C20.2773 25.4535 19.6182 22.5192 16.2444 22.9634C12.5889 23.444 11.4417 22.5384 13.7278 19.2217C13.2628 19.0137 12.6194 19.254 12.0027 19.4844C10.8326 19.9215 9.75853 20.3228 10.1805 17.5579C10.2055 17.3829 9.8611 16.9634 9.79165 16.9829C9.5259 17.0671 9.25433 17.3304 8.98437 17.5922L8.98436 17.5923C8.39936 18.1596 7.82194 18.7196 7.32777 17.4329C6.97516 16.5155 7.57189 16.273 8.27233 15.9883C8.98448 15.6988 9.80384 15.3658 9.84165 14.2356C9.78652 14.0567 9.37529 14.0527 8.93261 14.0484C8.19326 14.0412 7.36619 14.0332 7.96388 13.2079C9.95344 10.4628 8.43128 9.30913 6.72823 8.01841L6.72818 8.01837L6.72802 8.01825C6.55271 7.88538 6.37549 7.75107 6.19999 7.61341C5.96979 7.43416 6.05361 7.1639 6.14325 6.8749C6.18557 6.73845 6.22918 6.59783 6.24165 6.46063C6.24165 6.45647 6.24027 6.45092 6.23888 6.44536L6.23888 6.44536C6.23749 6.4398 6.2361 6.43424 6.2361 6.43008C6.24443 6.29952 6.23054 6.16619 6.14999 6.04674C6.104 6.01513 6.06172 5.99169 6.01894 5.96796L6.01893 5.96796ZM1.47777 26.1856C0.916655 26.094 0.277766 25.5051 0.338877 24.6579C0.461099 23.1023 5.20277 19.9329 7.30832 20.0579C9.24746 20.1646 9.8728 21.4824 10.4606 22.7212C10.6988 23.2232 10.9308 23.7122 11.2417 24.1023C11.15 25.9356 10.0417 26.9717 8.84999 26.9773C6.50999 27.0064 4.15233 26.6218 1.82268 26.2418L1.47777 26.1856ZM8.19165 0.8773C5.56665 1.5773 4.05277 2.97174 4.23888 5.79119C2.4805 5.96414 2.99056 6.67928 3.46066 7.33839C3.53417 7.44146 3.6067 7.54315 3.66943 7.64119C3.80515 7.33243 4.04136 7.04233 4.28506 6.74303L4.28506 6.74303C4.4404 6.55226 4.59877 6.35775 4.7361 6.1523C4.89025 6.11242 5.04482 6.07169 5.19948 6.03095L5.19967 6.0309C5.44349 5.96666 5.68754 5.90237 5.93054 5.84119C6.16733 5.31917 6.57441 4.87779 6.98731 4.4301C7.82897 3.51752 8.69482 2.57873 8.19165 0.8773ZM3.57499 8.42452C3.99721 8.2773 3.88332 7.98286 3.66665 7.64119C3.55832 7.88008 3.49443 8.13008 3.57499 8.42452Z" fill="#0E8784"/>
</svg>
